<svg id="Capa_1" enable-background="new 0 0 512 512" height="512" viewBox="0 0 512 512" width="512" xmlns="http://www.w3.org/2000/svg"><g><g><path d="m279.861 213.401c-2.173 0-4.331-.914-5.855-2.693l-169.526-197.995c-2.767-3.232-2.39-8.095.842-10.862 3.232-2.765 8.094-2.39 10.862.842l169.525 197.995c2.767 3.232 2.39 8.094-.842 10.862-1.452 1.242-3.233 1.851-5.006 1.851z" fill="#dbedff"/></g><path d="m146.82 114.014c-7.697-21.13-34.671-32.176-63.79-27.552s-42.203 9.155-51.034 64.028 48.531 90.642 48.531 90.642l9.21-1.184 1.832-7.29-1.434-3.906c-12.126-6.242-23.831-15.826-29.155-30.444-13.305-36.527 6.047-63.388 25.597-70.509 15.502-5.647 40.425 2.497 46.286 22.021 1.597 5.318 8.884 5.881 11.242.853 4.571-9.744 7.757-22.817 2.715-36.659z" fill="#e39b74"/><g><path d="m73.404 91.089c3.171-1.763 6.388-3.289 9.625-4.627-9.876 1.568-19.997 4.932-29.699 10.326-40.447 22.486-70.914 124.156 30.683 154.362l3.361-1.8 2.27-9.036c-84.021-35.188-54.635-127.879-16.24-149.225z" fill="#dd8858"/></g><path d="m167.746 326.982-78.06 76.006v70.871l32.945 38.141h4.598 39.023c5.649 0 9.726-5.502 7.986-10.876-3.832-11.834-13.654-17.764-20.997-20.627-6.68-2.605-11.719-8.317-13.525-15.256-5.294-20.34-1.551-40.835 1.591-52.383 1.557-5.724 5.279-10.594 10.363-13.652 30.729-18.479 47.424-40.678 55.816-55.311v-6.299z" fill="#e39b74"/><path d="m153.695 500.651c-3.832-12.349-13.654-18.536-20.997-21.524-6.68-2.719-11.719-8.679-13.525-15.919-5.294-21.225-1.551-42.611 1.591-54.661 1.557-5.973 5.279-11.055 10.363-14.245 30.729-19.283 47.424-42.447 55.816-57.717v-4.475l-19.198-5.127-78.06 76.006v70.871l32.946 38.14h4.598 18.481c5.648 0 9.725-5.741 7.985-11.349z" fill="#dd8858"/><path d="m451.246 496.224c-5.148-12.48-15.871-18.95-22.977-22.003-3.167-1.361-5.954-3.38-8.235-5.872l-20.263-111.662c-.319-3.295-.671-6.586-1.088-9.872l-5.373-42.367-2.254-2.545-5.05 1.198-28.137 47.083v53.488l20.006 74.979 30.179 16.434-4.373 13.673 2.225 3.126c.705.068 1.415.115 2.134.115h32.7c8.127.001 13.605-8.262 10.506-15.775z" fill="#e39b74"/><path d="m412.3 474.222c-3.167-1.361-5.954-3.38-8.235-5.872l-20.263-111.662c-.319-3.295-.671-6.586-1.088-9.872l-3.997-31.516-20.848 34.885v53.488l20.006 74.979 30.179 16.434-4.373 13.673 2.225 3.126c.705.068 1.415.115 2.134.115h16.733c8.126-.001 13.603-8.264 10.504-15.776-5.148-12.48-15.87-18.95-22.977-22.002z" fill="#dd8858"/><path d="m483.686 107.522c-24.559-1.795-33.703-9.946-48.702-27.855-11.18-13.349-28.315-16.611-38.951-17.26l-1.81 4.717-25.365 18.015v56.239l-7.931 8.086-18.923 37.31c15.814 10.512 39.298 22.004 68.481 24.145l2.622-2.779c1.361-9.48 1.933-15.32 1.933-15.32 12.325-32.525 48.617-23.624 56.833-23.624 5.136 0 7.997-4.547 9.422-7.957.934-2.236 2.439-4.199 4.339-5.703 9.31-7.375 11.062-22.839 10.955-34.152-.067-7.273-5.649-13.332-12.903-13.862z" fill="#eaae8e"/><path d="m371.456 136.663 2.652-55.252-28.33 20.121-4.951-.841c-7.527 15.76-11.525 35.031-21.398 58.192v9.411s9.717 10.657 27.064 21.357c17.787-26.363 24.963-52.988 24.963-52.988z" fill="#e39b74"/><path d="m405.864 234.029-70.364-34.429-1.79 3.53-56.875 32.356-.9 20.626 65.735 18.931 52.725 1.611 5.11-3.565c3.426-11.939 6.18-23.794 8.361-34.582z" fill="#eaae8e"/><path d="m306.919 185.616h-4.129c-6.235 5.713-13.513 9.144-21.689 11.011l-2.77 4.534-1.681 38.542c1.136-.212 2.269-.437 3.399-.682 25.07-5.434 44.092-20.848 58.119-38.115z" fill="#e39b74"/><path d="m142.41 235.997-25.421 31.169-46.477 143.88v72.399l29.529 20.756 8.353 7.799h14.235c5.649 0 9.726-5.502 7.986-10.876-3.832-11.834-13.654-17.764-20.997-20.627-6.68-2.605-11.719-8.317-13.525-15.256-5.294-20.34-1.551-40.835 1.591-52.383 1.557-5.724 5.279-10.594 10.363-13.652 33.311-20.031 50.139-44.443 57.766-58.839 3.302-6.234 10.944-8.696 17.295-5.625 22.94 11.094 52.784 16.47 78.338 19.042l4.092-3.6-7.707-114.187z" fill="#eaae8e"/><path d="m258.228 241.834-2.664-39.475-3.973-4.298c-26.791-1.912-59.022-9.692-94.012-9.692-71.898 0-80.115 64.366-72.583 105.45 5.93 32.348-13.184 67.667-21.581 81.226-2.499 4.035-4.066 8.568-4.586 13.286l-6.227 56.523c-1.21 10.986.274 22.101 4.324 32.385l9.571 24.301c2.486 6.311 8.579 10.46 15.363 10.46h26.535c-.915-9.612-10.504-18.734-16.858-23.788-4.502-3.58-8.012-8.283-9.944-13.7-7.554-21.18-5.704-47.437-3.046-64.942 1.65-10.87 6.688-20.935 14.398-28.773 22.807-23.186 19.462-42.783 29.437-104.144 10.101-62.136 73.975-31.508 135.846-34.819z" fill="#e39b74"/><path d="m414.815 496.222c-5.107-12.377-15.697-18.843-22.802-21.926-5.668-2.459-10.286-6.876-12.72-12.555-11.336-26.45-14.437-75.975-15.286-101.099-.303-8.97 2.464-17.752 7.773-24.988 6.432-8.768 11.98-19.375 16.752-30.798l-4.578-5.434-108.019-16.092 9.415 69.159 4.074 3.227c5.546.216 10.448.311 14.454.342 6.643.051 12.236 4.941 13.178 11.517 7.119 49.707 24.804 104.132 33.744 129.659 3.098 8.845 11.438 14.767 20.81 14.767h32.7c8.127-.001 13.605-8.265 10.505-15.779z" fill="#eaae8e"/><g><path d="m426.767 115.873h-2.825c-4.254 0-7.703-3.448-7.703-7.703s3.449-7.703 7.703-7.703h2.825c4.254 0 7.703 3.448 7.703 7.703s-3.448 7.703-7.703 7.703z" fill="#dd8858"/></g><path d="m302.262 165.39-.992 3.031s28.074 29.315 61.627 42.497c33.552 13.181 52.797 16.091 52.797 16.091l4.245-2.873.699-7.761c.356-3.949-2.441-7.488-6.366-8.05-47.194-6.764-82.198-37.079-94.448-49.093-2.771-2.717-7.161-2.841-10.096-.302z" fill="#ffc365"/><path d="m416.234 224.571c-57.906-7.954-99.183-44.291-113.517-58.673-.162-.163-.311-.334-.455-.508l-4.606 3.985c-3.27 2.829-3.469 7.839-.417 10.902 14.335 14.382 55.612 50.719 113.517 58.673 4.22.58 8.072-2.49 8.454-6.732l.728-8.081c-1.139.442-2.403.612-3.704.434z" fill="#ffa90f"/><path d="m272.562 191.041-2.479.008-2.536 2.494s-3.416 17.921-4.853 47.589h13.894l3.461-2.112c.276-15.952 1.124-29.405 1.798-37.975.426-5.409-3.858-10.021-9.285-10.004z" fill="#8479c2"/><path d="m265.334 241.133c.84-20.67 2.994-38.397 4.748-50.083l-9.534.031c-4.796.016-8.792 3.674-9.216 8.451-.747 8.403-1.762 22.417-2.114 39.489l2.237 2.112z" fill="#6e60b8"/><path d="m291.524 346.666c-4.875-15.703-7.831-33.521-9.535-51.354l-3.101-2.823-15.204.227c4.164 34.526 14.947 62.812 14.947 62.812l3.132 3.186c.46-.023.937-.043 1.385-.067 6.024-.324 10.165-6.219 8.376-11.981z" fill="#8479c2"/><path d="m269.838 359.044c4.079-.007 8.182-.146 11.925-.33-8.544-20.667-13.109-43.602-15.235-66.04l-13.446.201-2.134 2.438c1.704 19.212 4.771 38.917 9.962 57.049 1.136 3.97 4.797 6.688 8.928 6.682z" fill="#6e60b8"/><path d="m406.439 272.383c-56.079 6.745-107.951-11.994-126.473-19.801l-4.031 3.53 1.02 13.816c22.168 8.906 56.114 18.9 96.864 18.9 11.327 0 21.107-.453 33.012-2.179 1.272-.185 2.399-.819 3.227-1.739l1.733-6.277c.935-3.392-1.859-6.671-5.352-6.25z" fill="#6e60b8"/><path d="m406.83 285.621c-11.905 1.727-21.685 2.179-33.012 2.179-40.797 0-74.776-10.018-96.942-18.931l.941 12.749 3.513 6.018c20.389 8.292 52.035 17.776 90.126 17.776 10.431 0 19.438-.417 30.401-2.007 1.952-.283 3.56-1.695 4.085-3.597l4.546-16.462c-.84 1.21-2.15 2.056-3.658 2.275z" fill="#6353b2"/><path d="m262.801 239.021c-.443 8.435-.732 17.859-.732 28.145 0 9.586.756 19.102 1.942 28.145h17.978c-1.881-19.689-2.232-39.392-1.94-56.291h-17.248z" fill="#dbedff"/><path d="m266.789 295.311c-2.031-19.68-2.148-39.063-1.367-56.291h-16.204c-.343 16.645-.053 36.198 1.729 56.291z" fill="#b5dcff"/><path d="m383.096 56.778s-7.531 1.511-11.255 5.628-10.913 25.302-10.913 25.302l22.168 48.954 7.991 4.714c6.565-19.149 7.53-52.85 7.53-70.996 0-7.697-6.352-13.854-14.046-13.666-.498.013-.986.04-1.475.064z" fill="#e39b74"/><path d="m367.949 99.963c-6.235-15.49-.604-33.368 13.551-42.224.521-.326 1.055-.646 1.596-.961-10.744.542-19.658 4.05-26.76 8.493-14.155 8.856-19.787 26.734-13.551 42.224 8.526 21.18 23.029 50.559 37.086 48.024 4.894-.883 8.525-6.292 11.216-14.142-9.101-9.518-17.451-27.284-23.138-41.414z" fill="#dd8858"/></g></svg>